<svg width="20" height="20" viewBox="0 0 20 20" fill="none" xmlns="http://www.w3.org/2000/svg">
    <path
        d="M17.1173 1.38622C16.1149 0.761377 13.1052 3.52712 12.7849 3.22162C12.5185 2.9672 14.7019 1.15089 14.2704 0.468765C13.8814 -0.146057 11.4192 0.604807 6.51066 2.13184C4.25853 2.83354 3.09763 3.22019 2.10522 4.22214C1.75962 4.57156 0.660293 5.68282 0.478424 7.31057C0.460285 7.46953 0.455034 7.60176 0.453125 7.69245V14.0636C0.453125 16.7735 2.97829 18.9698 6.09298 18.9698H13.4183C13.8666 18.9726 15.7473 18.9383 17.3249 17.6065C17.4796 17.4757 19.1331 16.0398 19.1675 14.0435C19.1675 14.0149 19.1675 13.991 19.1675 13.9758C19.1675 12.1364 19.1675 10.297 19.1675 8.45764C19.1675 8.40322 19.1766 8.27291 19.1675 8.09915C19.1455 7.6872 19.0506 7.3249 18.8983 6.92679C18.7393 6.5115 18.5164 6.12532 18.0706 5.35154C17.8725 5.00833 17.5932 4.54483 17.5302 4.44458C17.4395 4.30138 17.4376 4.30472 17.4042 4.22214C16.7951 2.71898 17.5813 1.67502 17.1173 1.38622Z"
        stroke="#D1D5DB" stroke-width="0.5" stroke-miterlimit="10" />
    <path
        d="M16.8126 11.9881C16.2274 9.51639 13.7939 9.77654 13.7939 9.77654C13.7939 9.77654 12.6005 9.82428 11.8434 10.7427C11.4468 11.2243 11.3398 11.7618 11.2663 12.1399C11 13.5118 11.5656 14.1581 11.115 14.6608C10.8076 15.0035 10.2653 15.0145 9.82618 15.0231C9.38702 15.0317 8.88199 15.0426 8.56264 14.7367C8.07718 14.2708 8.54975 13.591 8.22611 12.1408C8.12348 11.6802 8.01847 11.1919 7.64948 10.7436C6.89193 9.82428 5.69904 9.7775 5.69904 9.7775C5.69904 9.7775 3.26457 9.51735 2.6803 11.989C2.48411 12.8187 2.35284 12.9862 2.05974 13.2941C1.61534 13.7586 0.961847 13.897 0.467793 13.94C0.453572 14.3224 0.490821 14.705 0.578538 15.0775C0.732601 15.6832 1.00499 16.2525 1.38 16.7525C1.62202 17.08 1.90176 17.3778 2.21345 17.6399C2.79281 18.1161 3.46239 18.4704 4.18203 18.6814C4.6894 18.8342 5.21268 18.9281 5.74152 18.9612C5.93246 18.9736 6.03366 18.9717 6.66423 18.9707C7.18454 18.9707 7.70437 18.9707 8.2242 18.9707C9.53309 18.9645 10.188 18.9612 10.5537 18.9636C11.4606 18.9698 12.3723 18.9636 13.2817 18.9707C13.6259 18.976 13.9701 18.9557 14.3113 18.9101C14.686 18.8605 15.0553 18.7763 15.4145 18.6585L15.488 18.6337C16.0534 18.4325 16.588 18.1536 17.0766 17.805C17.408 17.5555 17.7081 17.267 17.9707 16.9458C18.2141 16.6565 18.6552 16.1243 18.9282 15.3176C19.0787 14.8714 19.1569 14.4041 19.1597 13.9333C18.8619 13.9438 18.0585 13.9333 17.5048 13.4426C17.3601 13.3127 17.1028 13.2144 16.8126 11.9881Z"
        fill="#D1D5DB" stroke="#D1D5DB" stroke-width="0.0874999" stroke-miterlimit="10" />
    <path
        d="M5.62256 13.3801C6.34069 13.3801 6.92285 12.7979 6.92285 12.0798C6.92285 11.3616 6.34069 10.7795 5.62256 10.7795C4.90443 10.7795 4.32227 11.3616 4.32227 12.0798C4.32227 12.7979 4.90443 13.3801 5.62256 13.3801Z"
        fill="#2A303A" />
    <path
        d="M13.9995 13.3801C14.7176 13.3801 15.2998 12.7979 15.2998 12.0798C15.2998 11.3616 14.7176 10.7795 13.9995 10.7795C13.2814 10.7795 12.6992 11.3616 12.6992 12.0798C12.6992 12.7979 13.2814 13.3801 13.9995 13.3801Z"
        fill="#2A303A" />
    <path
        d="M9.81142 16.5926C9.61371 16.5925 9.42235 16.5227 9.27106 16.3954C8.62808 15.856 8.08533 14.9892 7.81897 14.5204C7.73222 14.3692 7.69442 14.1948 7.71074 14.0212C7.72707 13.8476 7.79672 13.6834 7.91015 13.5509C8.35832 13.0276 8.95934 12.658 9.6286 12.4941C9.7502 12.4664 9.87646 12.4664 9.99806 12.4941C10.6673 12.658 11.2683 13.0276 11.7165 13.5509C11.8299 13.6834 11.8995 13.8477 11.9158 14.0213C11.932 14.1949 11.8941 14.3693 11.8072 14.5204C11.5408 14.9892 10.9986 15.857 10.3551 16.3954C10.2029 16.5235 10.0103 16.5933 9.81142 16.5926Z"
        fill="#2A303A" stroke="#D1D5DB" stroke-width="0.0833832" stroke-miterlimit="10" />
    <path
        d="M9.8129 14.4771C8.9236 14.3276 8.38086 14.035 8.38086 14.035C8.77085 14.9129 9.8129 15.658 9.8129 15.658C9.8129 15.658 10.8573 14.9119 11.2478 14.035C11.2478 14.035 10.7027 14.3276 9.8129 14.4771Z"
        fill="#D1D5DB" />
</svg>